<svg xmlns="http://www.w3.org/2000/svg" width="64" height="64" viewBox="0 0 64 64">
  <rect width="64" height="64" rx="14" fill="#385a45"/>
  <g transform="translate(16,15) scale(0.5)" fill="#e3b53e">
    <path d="M32 4c2.6 4.2 2.6 8.4 0 12.6-2.6-4.2-2.6-8.4 0-12.6z"/>
    <path d="M32 14c1.6 6 1.6 11 0 18-3.2-3-7-4-11-3 .6-6 4.6-10.5 11-15zm0 0c-1.6 6-1.6 11 0 18 3.2-3 7-4 11-3-.6-6-4.6-10.5-11-15z"/>
    <path d="M21 30c-4.6 2.2-7 6-7 11 0 5 3.4 9 9 11-3-3.4-4-7-3-11 .8-3.2 2.4-7 1-11zm22 0c4.6 2.2 7 6 7 11 0 5-3.4 9-9 11 3-3.4 4-7 3-11-.8-3.2-2.4-7-1-11z"/>
    <path d="M32 28c2.4 6 2.4 18 0 30-2.4-12-2.4-24 0-30z"/>
    <rect x="20" y="44" width="24" height="5" rx="2.5"/>
  </g>
</svg>
